<svg xmlns="http://www.w3.org/2000/svg" viewBox="0 0 1600 1200" role="img" aria-labelledby="title desc">
  <title id="title">DAQIRI networking engine decision tree</title>
  <desc id="desc">Choose the coming-soon PCIe path for programmable PCIe sensors, socket TCP or UDP endpoint URIs for non-NVIDIA NICs, RoCE endpoint URIs for NVIDIA NICs talking to an RDMA endpoint, or raw Ethernet for NVIDIA NICs without an existing RoCE endpoint.</desc>
  <defs>
    <filter id="shadow" x="-20%" y="-20%" width="140%" height="140%">
      <feDropShadow dx="0" dy="12" stdDeviation="12" flood-color="#1f2937" flood-opacity="0.16"/>
    </filter>
    <marker id="arrow" viewBox="0 0 20 20" refX="16" refY="10" markerWidth="11" markerHeight="11" orient="auto">
      <path d="M0 0 L20 10 L0 20 Z" fill="#2f3b4f"/>
    </marker>
  </defs>

  <rect width="1600" height="1200" fill="#f3f6fa"/>
  <rect width="1600" height="138" fill="#0b1017"/>
  <rect y="132" width="1600" height="7" fill="#76b900"/>
  <rect x="64" y="42" width="82" height="48" rx="6" fill="#76b900"/>
  <text x="164" y="69" fill="#ffffff" font-family="Inter, Arial, sans-serif" font-size="42" font-weight="800">DAQIRI Networking Engine Decision Tree</text>
  <text x="164" y="102" fill="#c7d0dd" font-family="Inter, Arial, sans-serif" font-size="21">Choose the stream type and endpoint scheme that match the sensor, NIC, and peer.</text>

  <!-- Connectors -->
  <g fill="none" stroke="#2f3b4f" stroke-width="4" stroke-linecap="round" stroke-linejoin="round">
    <path d="M1160 275 H1250" marker-end="url(#arrow)"/>
    <path d="M780 395 V460" marker-end="url(#arrow)"/>
    <path d="M520 575 H400" marker-end="url(#arrow)"/>
    <path d="M780 670 V745" marker-end="url(#arrow)"/>
    <path d="M1110 870 H1225" marker-end="url(#arrow)"/>
    <path d="M780 980 V1060" marker-end="url(#arrow)"/>
  </g>

  <!-- Decisions -->
  <g fill="#ffffff" stroke="#2f3b4f" stroke-width="4" stroke-linejoin="round">
    <path d="M780 155 L1160 275 L780 395 L400 275 Z"/>
    <path d="M780 480 L1040 575 L780 670 L520 575 Z"/>
    <path d="M780 760 L1110 870 L780 980 L450 870 Z"/>
  </g>

  <g font-family="Inter, Arial, sans-serif" fill="#121827">
    <text x="780" y="258" text-anchor="middle" font-size="30" font-weight="800">PCIe Programmable</text>
    <text x="780" y="298" text-anchor="middle" font-size="30" font-weight="800">Sensor (FPGA, etc)?</text>

    <text x="780" y="586" text-anchor="middle" font-size="34" font-weight="800">NVIDIA NIC?</text>

    <text x="780" y="858" text-anchor="middle" font-size="30" font-weight="800">Existing endpoint</text>
    <text x="780" y="896" text-anchor="middle" font-size="30" font-weight="800">implementing RoCE?</text>
  </g>

  <!-- Branch labels -->
  <g fill="#344054" font-family="Inter, Arial, sans-serif" font-size="22" font-weight="800">
    <text x="1168" y="246">Yes</text>
    <text x="808" y="430">No</text>
    <text x="454" y="540">No</text>
    <text x="808" y="715">Yes</text>
    <text x="1145" y="846">Yes</text>
    <text x="808" y="1035">No</text>
  </g>

  <!-- Leaves -->
  <g filter="url(#shadow)">
    <rect x="1250" y="220" width="310" height="110" rx="14" fill="#e6f7ff" stroke="#0b6f8f" stroke-width="3"/>
    <text x="1405" y="278" text-anchor="middle" fill="#121827" font-family="Inter, Arial, sans-serif" font-size="25" font-weight="800">stream_type = pcie</text>
    <text x="1405" y="307" text-anchor="middle" fill="#0b6f8f" font-family="Inter, Arial, sans-serif" font-size="18" font-weight="800">coming soon</text>
  </g>

  <g filter="url(#shadow)">
    <rect x="20" y="515" width="380" height="130" rx="14" fill="#eef2ff" stroke="#4f46e5" stroke-width="3"/>
    <text x="210" y="570" text-anchor="middle" fill="#121827" font-family="Inter, Arial, sans-serif" font-size="26" font-weight="800">stream_type = socket,</text>
    <text x="210" y="608" text-anchor="middle" fill="#121827" font-family="Inter, Arial, sans-serif" font-size="26" font-weight="800">tcp:// or udp://</text>
  </g>

  <g filter="url(#shadow)">
    <rect x="1225" y="805" width="355" height="140" rx="14" fill="#ecfdf3" stroke="#16a34a" stroke-width="3"/>
    <text x="1402" y="873" text-anchor="middle" fill="#121827" font-family="Inter, Arial, sans-serif" font-size="25" font-weight="800">stream_type = socket</text>
    <text x="1402" y="906" text-anchor="middle" fill="#121827" font-family="Inter, Arial, sans-serif" font-size="24" font-weight="800">roce:// endpoints</text>
    <text x="1402" y="932" text-anchor="middle" fill="#121827" font-family="Inter, Arial, sans-serif" font-size="20" font-weight="800">ibverbs default</text>
  </g>

  <g filter="url(#shadow)">
    <rect x="600" y="1060" width="360" height="110" rx="14" fill="#fff7ed" stroke="#c2410c" stroke-width="3"/>
    <text x="780" y="1128" text-anchor="middle" fill="#121827" font-family="Inter, Arial, sans-serif" font-size="28" font-weight="800">stream_type = raw</text>
  </g>
</svg>
